<svg width="293" height="57" viewBox="0 0 293 57" fill="none" xmlns="http://www.w3.org/2000/svg">
<g filter="url(#filter0_d_26_1398)">
<rect x="8" y="4" width="277" height="41" rx="20.5" fill="#F78154"/>
</g>
<path d="M129.43 25.138H134.064V27H127.022V17.76H129.43V25.138ZM138.526 19.86C139.263 19.86 139.907 20.0047 140.458 20.294C141.018 20.574 141.452 20.9893 141.76 21.54C142.077 22.0813 142.236 22.7347 142.236 23.5C142.236 24.2653 142.077 24.9233 141.76 25.474C141.452 26.0153 141.018 26.4307 140.458 26.72C139.907 27 139.263 27.14 138.526 27.14C137.807 27.14 137.168 27 136.608 26.72C136.048 26.4307 135.609 26.0153 135.292 25.474C134.984 24.9233 134.83 24.2653 134.83 23.5C134.83 22.7347 134.984 22.0813 135.292 21.54C135.609 20.9893 136.048 20.574 136.608 20.294C137.168 20.0047 137.807 19.86 138.526 19.86ZM138.526 21.554C138.255 21.554 138.022 21.6193 137.826 21.75C137.63 21.8807 137.481 22.0907 137.378 22.38C137.275 22.6693 137.224 23.0427 137.224 23.5C137.224 23.9573 137.275 24.3307 137.378 24.62C137.481 24.9 137.63 25.11 137.826 25.25C138.022 25.3807 138.255 25.446 138.526 25.446C138.806 25.446 139.044 25.3807 139.24 25.25C139.436 25.11 139.585 24.9 139.688 24.62C139.791 24.3307 139.842 23.9573 139.842 23.5C139.842 23.0427 139.791 22.6693 139.688 22.38C139.585 22.0907 139.436 21.8807 139.24 21.75C139.044 21.6193 138.806 21.554 138.526 21.554ZM150.255 18.124L150.451 19.72C150.395 19.7013 150.339 19.692 150.283 19.692C150.227 19.6827 150.171 19.678 150.115 19.678C149.704 19.678 149.396 19.7807 149.191 19.986C148.995 20.182 148.897 20.4293 148.897 20.728L148.057 20.42C148.057 20.0373 148.127 19.6687 148.267 19.314C148.407 18.9593 148.622 18.67 148.911 18.446C149.21 18.222 149.583 18.11 150.031 18.11C150.059 18.11 150.092 18.11 150.129 18.11C150.176 18.11 150.218 18.1147 150.255 18.124ZM147.847 25.446C148.659 25.446 149.28 25.6187 149.709 25.964C150.148 26.3 150.367 26.7853 150.367 27.42C150.367 27.9987 150.208 28.4793 149.891 28.862C149.574 29.2447 149.126 29.5293 148.547 29.716C147.978 29.912 147.301 30.01 146.517 30.01C145.248 30.01 144.333 29.8513 143.773 29.534C143.213 29.2167 142.933 28.7873 142.933 28.246C142.933 27.854 143.092 27.5367 143.409 27.294C143.726 27.0513 144.254 26.9207 144.991 26.902L144.935 27.126C144.366 27.0513 143.941 26.8833 143.661 26.622C143.381 26.3607 143.241 26.006 143.241 25.558C143.241 25.11 143.418 24.746 143.773 24.466C144.128 24.186 144.599 24.032 145.187 24.004L146.055 24.41H145.831C145.467 24.4287 145.21 24.4893 145.061 24.592C144.912 24.6947 144.837 24.8207 144.837 24.97C144.837 25.1287 144.902 25.25 145.033 25.334C145.164 25.4087 145.36 25.446 145.621 25.446H147.847ZM146.531 28.47C146.979 28.47 147.348 28.4373 147.637 28.372C147.936 28.316 148.16 28.232 148.309 28.12C148.458 28.0173 148.533 27.896 148.533 27.756C148.533 27.616 148.482 27.504 148.379 27.42C148.276 27.3453 148.09 27.308 147.819 27.308H145.313C145.136 27.308 144.991 27.3547 144.879 27.448C144.776 27.5413 144.725 27.658 144.725 27.798C144.725 28.0127 144.884 28.176 145.201 28.288C145.518 28.4093 145.962 28.47 146.531 28.47ZM146.615 19.86C147.324 19.86 147.931 19.9533 148.435 20.14C148.939 20.3267 149.322 20.5973 149.583 20.952C149.854 21.2973 149.989 21.7267 149.989 22.24C149.989 22.744 149.854 23.1733 149.583 23.528C149.322 23.8827 148.939 24.1533 148.435 24.34C147.931 24.5173 147.324 24.606 146.615 24.606C145.504 24.606 144.66 24.4007 144.081 23.99C143.512 23.5793 143.227 22.996 143.227 22.24C143.227 21.7267 143.358 21.2973 143.619 20.952C143.89 20.5973 144.277 20.3267 144.781 20.14C145.285 19.9533 145.896 19.86 146.615 19.86ZM146.615 21.218C146.307 21.218 146.055 21.3067 145.859 21.484C145.672 21.6613 145.579 21.9133 145.579 22.24C145.579 22.5573 145.672 22.8047 145.859 22.982C146.055 23.1593 146.307 23.248 146.615 23.248C146.914 23.248 147.161 23.1593 147.357 22.982C147.553 22.8047 147.651 22.5573 147.651 22.24C147.651 21.9133 147.553 21.6613 147.357 21.484C147.161 21.3067 146.914 21.218 146.615 21.218ZM157.895 17.76V27H155.487V17.76H157.895ZM159.749 27V20H161.877L162.003 22.408L161.737 22.142C161.83 21.638 161.993 21.218 162.227 20.882C162.469 20.546 162.768 20.294 163.123 20.126C163.487 19.9487 163.893 19.86 164.341 19.86C164.826 19.86 165.246 19.9533 165.601 20.14C165.965 20.3267 166.249 20.602 166.455 20.966C166.66 21.33 166.763 21.7873 166.763 22.338V27H164.383V22.968C164.383 22.4827 164.289 22.1467 164.103 21.96C163.916 21.7733 163.678 21.68 163.389 21.68C163.165 21.68 162.955 21.736 162.759 21.848C162.563 21.9507 162.409 22.1187 162.297 22.352C162.185 22.5853 162.129 22.898 162.129 23.29V27H159.749Z" fill="white"/>
<defs>
<filter id="filter0_d_26_1398" x="0" y="0" width="293" height="57" filterUnits="userSpaceOnUse" color-interpolation-filters="sRGB">
<feFlood flood-opacity="0" result="BackgroundImageFix"/>
<feColorMatrix in="SourceAlpha" type="matrix" values="0 0 0 0 0 0 0 0 0 0 0 0 0 0 0 0 0 0 127 0" result="hardAlpha"/>
<feOffset dy="4"/>
<feGaussianBlur stdDeviation="4"/>
<feColorMatrix type="matrix" values="0 0 0 0 0.505882 0 0 0 0 0.388235 0 0 0 0 0.839216 0 0 0 0.25 0"/>
<feBlend mode="normal" in2="BackgroundImageFix" result="effect1_dropShadow_26_1398"/>
<feBlend mode="normal" in="SourceGraphic" in2="effect1_dropShadow_26_1398" result="shape"/>
</filter>
</defs>
</svg>
