<svg width="293" height="57" viewBox="0 0 293 57" fill="none" xmlns="http://www.w3.org/2000/svg">
<g filter="url(#filter0_d_58_1665)">
<rect x="8" y="4" width="277" height="41" rx="20.5" fill="#F78154"/>
</g>
<path d="M130.634 17.62C131.493 17.62 132.249 17.7553 132.902 18.026C133.565 18.2873 134.139 18.6747 134.624 19.188L133.462 20.742C133.061 20.322 132.627 20.0093 132.16 19.804C131.703 19.5893 131.18 19.482 130.592 19.482C130.247 19.482 129.967 19.5193 129.752 19.594C129.537 19.6687 129.383 19.7713 129.29 19.902C129.197 20.0327 129.15 20.182 129.15 20.35C129.15 20.546 129.239 20.714 129.416 20.854C129.603 20.9847 129.901 21.0967 130.312 21.19L131.866 21.54C132.79 21.7547 133.467 22.0673 133.896 22.478C134.325 22.8887 134.54 23.4347 134.54 24.116C134.54 24.7693 134.372 25.3247 134.036 25.782C133.7 26.23 133.238 26.5707 132.65 26.804C132.062 27.028 131.39 27.14 130.634 27.14C130.018 27.14 129.43 27.0747 128.87 26.944C128.31 26.804 127.806 26.608 127.358 26.356C126.91 26.104 126.532 25.8147 126.224 25.488L127.386 23.878C127.619 24.1487 127.904 24.3913 128.24 24.606C128.585 24.8113 128.959 24.9747 129.36 25.096C129.771 25.2173 130.186 25.278 130.606 25.278C130.933 25.278 131.203 25.2453 131.418 25.18C131.642 25.1147 131.805 25.0167 131.908 24.886C132.011 24.7553 132.062 24.6013 132.062 24.424C132.062 24.228 131.992 24.0647 131.852 23.934C131.712 23.794 131.446 23.6773 131.054 23.584L129.346 23.206C128.823 23.0847 128.357 22.926 127.946 22.73C127.545 22.5247 127.227 22.254 126.994 21.918C126.761 21.5727 126.644 21.1433 126.644 20.63C126.644 20.0513 126.803 19.538 127.12 19.09C127.437 18.6327 127.895 18.2733 128.492 18.012C129.089 17.7507 129.803 17.62 130.634 17.62ZM137.04 19.188C136.555 19.188 136.2 19.0993 135.976 18.922C135.761 18.7353 135.654 18.446 135.654 18.054C135.654 17.6527 135.761 17.3633 135.976 17.186C136.2 16.9993 136.555 16.906 137.04 16.906C137.516 16.906 137.866 16.9993 138.09 17.186C138.314 17.3633 138.426 17.6527 138.426 18.054C138.426 18.446 138.314 18.7353 138.09 18.922C137.866 19.0993 137.516 19.188 137.04 19.188ZM138.23 20V27H135.85V20H138.23ZM146.7 18.124L146.896 19.72C146.84 19.7013 146.784 19.692 146.728 19.692C146.672 19.6827 146.616 19.678 146.56 19.678C146.15 19.678 145.842 19.7807 145.636 19.986C145.44 20.182 145.342 20.4293 145.342 20.728L144.502 20.42C144.502 20.0373 144.572 19.6687 144.712 19.314C144.852 18.9593 145.067 18.67 145.356 18.446C145.655 18.222 146.028 18.11 146.476 18.11C146.504 18.11 146.537 18.11 146.574 18.11C146.621 18.11 146.663 18.1147 146.7 18.124ZM144.292 25.446C145.104 25.446 145.725 25.6187 146.154 25.964C146.593 26.3 146.812 26.7853 146.812 27.42C146.812 27.9987 146.654 28.4793 146.336 28.862C146.019 29.2447 145.571 29.5293 144.992 29.716C144.423 29.912 143.746 30.01 142.962 30.01C141.693 30.01 140.778 29.8513 140.218 29.534C139.658 29.2167 139.378 28.7873 139.378 28.246C139.378 27.854 139.537 27.5367 139.854 27.294C140.172 27.0513 140.699 26.9207 141.436 26.902L141.38 27.126C140.811 27.0513 140.386 26.8833 140.106 26.622C139.826 26.3607 139.686 26.006 139.686 25.558C139.686 25.11 139.864 24.746 140.218 24.466C140.573 24.186 141.044 24.032 141.632 24.004L142.5 24.41H142.276C141.912 24.4287 141.656 24.4893 141.506 24.592C141.357 24.6947 141.282 24.8207 141.282 24.97C141.282 25.1287 141.348 25.25 141.478 25.334C141.609 25.4087 141.805 25.446 142.066 25.446H144.292ZM142.976 28.47C143.424 28.47 143.793 28.4373 144.082 28.372C144.381 28.316 144.605 28.232 144.754 28.12C144.904 28.0173 144.978 27.896 144.978 27.756C144.978 27.616 144.927 27.504 144.824 27.42C144.722 27.3453 144.535 27.308 144.264 27.308H141.758C141.581 27.308 141.436 27.3547 141.324 27.448C141.222 27.5413 141.17 27.658 141.17 27.798C141.17 28.0127 141.329 28.176 141.646 28.288C141.964 28.4093 142.407 28.47 142.976 28.47ZM143.06 19.86C143.77 19.86 144.376 19.9533 144.88 20.14C145.384 20.3267 145.767 20.5973 146.028 20.952C146.299 21.2973 146.434 21.7267 146.434 22.24C146.434 22.744 146.299 23.1733 146.028 23.528C145.767 23.8827 145.384 24.1533 144.88 24.34C144.376 24.5173 143.77 24.606 143.06 24.606C141.95 24.606 141.105 24.4007 140.526 23.99C139.957 23.5793 139.672 22.996 139.672 22.24C139.672 21.7267 139.803 21.2973 140.064 20.952C140.335 20.5973 140.722 20.3267 141.226 20.14C141.73 19.9533 142.342 19.86 143.06 19.86ZM143.06 21.218C142.752 21.218 142.5 21.3067 142.304 21.484C142.118 21.6613 142.024 21.9133 142.024 22.24C142.024 22.5573 142.118 22.8047 142.304 22.982C142.5 23.1593 142.752 23.248 143.06 23.248C143.359 23.248 143.606 23.1593 143.802 22.982C143.998 22.8047 144.096 22.5573 144.096 22.24C144.096 21.9133 143.998 21.6613 143.802 21.484C143.606 21.3067 143.359 21.218 143.06 21.218ZM147.758 27V20H149.886L150.012 22.408L149.746 22.142C149.84 21.638 150.003 21.218 150.236 20.882C150.479 20.546 150.778 20.294 151.132 20.126C151.496 19.9487 151.902 19.86 152.35 19.86C152.836 19.86 153.256 19.9533 153.61 20.14C153.974 20.3267 154.259 20.602 154.464 20.966C154.67 21.33 154.772 21.7873 154.772 22.338V27H152.392V22.968C152.392 22.4827 152.299 22.1467 152.112 21.96C151.926 21.7733 151.688 21.68 151.398 21.68C151.174 21.68 150.964 21.736 150.768 21.848C150.572 21.9507 150.418 22.1187 150.306 22.352C150.194 22.5853 150.138 22.898 150.138 23.29V27H147.758ZM163.022 17.76V27H160.614V17.76H163.022ZM164.875 27V20H167.003L167.129 22.408L166.863 22.142C166.957 21.638 167.12 21.218 167.353 20.882C167.596 20.546 167.895 20.294 168.249 20.126C168.613 19.9487 169.019 19.86 169.467 19.86C169.953 19.86 170.373 19.9533 170.727 20.14C171.091 20.3267 171.376 20.602 171.581 20.966C171.787 21.33 171.889 21.7873 171.889 22.338V27H169.509V22.968C169.509 22.4827 169.416 22.1467 169.229 21.96C169.043 21.7733 168.805 21.68 168.515 21.68C168.291 21.68 168.081 21.736 167.885 21.848C167.689 21.9507 167.535 22.1187 167.423 22.352C167.311 22.5853 167.255 22.898 167.255 23.29V27H164.875Z" fill="white"/>
<defs>
<filter id="filter0_d_58_1665" x="0" y="0" width="293" height="57" filterUnits="userSpaceOnUse" color-interpolation-filters="sRGB">
<feFlood flood-opacity="0" result="BackgroundImageFix"/>
<feColorMatrix in="SourceAlpha" type="matrix" values="0 0 0 0 0 0 0 0 0 0 0 0 0 0 0 0 0 0 127 0" result="hardAlpha"/>
<feOffset dy="4"/>
<feGaussianBlur stdDeviation="4"/>
<feColorMatrix type="matrix" values="0 0 0 0 0.505882 0 0 0 0 0.388235 0 0 0 0 0.839216 0 0 0 0.25 0"/>
<feBlend mode="normal" in2="BackgroundImageFix" result="effect1_dropShadow_58_1665"/>
<feBlend mode="normal" in="SourceGraphic" in2="effect1_dropShadow_58_1665" result="shape"/>
</filter>
</defs>
</svg>
